<svg xmlns="http://www.w3.org/2000/svg" width="22.85" height="20" viewBox="0 0 22.85 20">
  <path id="Path_890" data-name="Path 890" d="M183.5,2211.754l8.02,5.506-8.02,4.668v-.844a1.983,1.983,0,0,0-2.377-1.943,12.263,12.263,0,0,0-7.19,4.471,8.4,8.4,0,0,1-.048-.9,8.25,8.25,0,0,1,7.75-8.23,1.983,1.983,0,0,0,1.865-1.979v-.754m-1.438-3.279a.544.544,0,0,0-.545.544v3.489a10.227,10.227,0,0,0-7.84,15.967,10.239,10.239,0,0,1,7.84-7.39v3.347a.543.543,0,0,0,.544.543.537.537,0,0,0,.272-.074l12.149-7.072a.543.543,0,0,0,.034-.917l-12.149-8.341a.535.535,0,0,0-.306-.1Z" transform="translate(-171.903 -2208.475)" fill="#fff"/>
</svg>
