<svg xmlns="http://www.w3.org/2000/svg" width="15.888" height="20" viewBox="0 0 15.888 20">
  <path id="Path_891" data-name="Path 891" d="M3294.223,2528.717a.325.325,0,0,1,.324.324v15.217l-5.117-4.339a1.717,1.717,0,0,0-2.22,0l-5.117,4.339v-15.217a.324.324,0,0,1,.324-.324h11.807m0-1.717h-11.807a2.041,2.041,0,0,0-2.041,2.041v17.124a.834.834,0,0,0,.838.835.819.819,0,0,0,.535-.2l6.572-5.573,6.572,5.573a.818.818,0,0,0,.534.2.834.834,0,0,0,.838-.835v-17.124a2.04,2.04,0,0,0-2.041-2.041Z" transform="translate(-3280.375 -2527)" fill="#fff"/>
</svg>
