<svg xmlns="http://www.w3.org/2000/svg" width="21.56" height="24" viewBox="0 0 21.56 24">
  <g id="Group_2138" data-name="Group 2138" transform="translate(-1890 -47)">
    <path id="Path_909" data-name="Path 909" d="M1890,81.983a4.441,4.441,0,0,0,4.441,4.441h12.678a4.441,4.441,0,0,0,4.441-4.441V73H1890Zm10.983-6.949h4.475a1.22,1.22,0,0,1,0,2.441h-4.475a1.22,1.22,0,0,1,0-2.441Zm0,4.068h4.475a1.22,1.22,0,0,1,0,2.441h-4.475a1.22,1.22,0,0,1,0-2.441Zm-4.881-4.068a1.22,1.22,0,1,1-1.22,1.22A1.22,1.22,0,0,1,1896.1,75.034Zm0,4.068a1.22,1.22,0,1,1-1.22,1.22A1.22,1.22,0,0,1,1896.1,79.1Z" transform="translate(0 -15.424)" fill="#fff"/>
    <path id="Path_910" data-name="Path 910" d="M1907.119,49.441h-.847V48.22a1.22,1.22,0,1,0-2.441,0v1.22h-6.1V48.22a1.22,1.22,0,0,0-2.441,0v1.22h-.847A4.441,4.441,0,0,0,1890,53.882v1.254h21.56V53.882A4.441,4.441,0,0,0,1907.119,49.441Z" fill="#fff"/>
  </g>
</svg>
