<svg id="Group_2147" data-name="Group 2147" xmlns="http://www.w3.org/2000/svg" width="12.41" height="12" viewBox="0 0 12.41 12">
  <path id="Path_916" data-name="Path 916" d="M2965.084,158.527a1.675,1.675,0,0,0-1.368-.7h-7.869v-.78A1.052,1.052,0,0,0,2954.8,156h-1.187a.61.61,0,1,0,0,1.22h1.017v6.443a1.694,1.694,0,0,0,1.692,1.692h6.267a1.687,1.687,0,0,0,1.61-1.171l1.135-4.156A1.676,1.676,0,0,0,2965.084,158.527Zm-4.152,3.575h-2.44a.61.61,0,0,1,0-1.22h2.44a.61.61,0,1,1,0,1.22Z" transform="translate(-2953 -156)" fill="#fff"/>
  <circle id="Ellipse_122" data-name="Ellipse 122" cx="1.119" cy="1.119" r="1.119" transform="translate(2.237 9.763)" fill="#fff" opacity="0.6"/>
  <circle id="Ellipse_123" data-name="Ellipse 123" cx="1.119" cy="1.119" r="1.119" transform="translate(8.542 9.763)" fill="#fff" opacity="0.6"/>
</svg>
