<svg xmlns="http://www.w3.org/2000/svg" width="24" height="22.971" viewBox="0 0 24 22.971">
  <path id="Path_889" data-name="Path 889" d="M936.886,42H925.914a4.115,4.115,0,0,0-4.114,4.114V61.543a1.371,1.371,0,1,1-2.743,0V56.4a1.029,1.029,0,1,0-2.057,0v5.143a3.42,3.42,0,0,0,4.913,3.086h11.773A7.314,7.314,0,0,0,941,57.314v-11.2A4.114,4.114,0,0,0,936.886,42Zm-5.143,17.829h-4.114a1.029,1.029,0,0,1,0-2.057h4.114a1.029,1.029,0,1,1,0,2.057Zm3.429-4.457h-7.543a1.029,1.029,0,0,1,0-2.057h7.543a1.029,1.029,0,1,1,0,2.057Zm1.371-6.543a.45.45,0,0,1-.453.451.442.442,0,0,1-.309-.127l-2.352-2.264a.45.45,0,0,1,.312-.774h2.352a.45.45,0,0,1,.45.45Z" transform="translate(-917 -42)" fill="#fff"/>
</svg>
