<svg xmlns="http://www.w3.org/2000/svg" width="21.851" height="24" viewBox="0 0 21.851 24">
  <g id="Group_2017" data-name="Group 2017" transform="translate(-1566 -42)">
    <g id="Group_2017-2" data-name="Group 2017" transform="translate(1566 50.597)">
      <rect id="Rectangle_450" data-name="Rectangle 450" width="21.851" height="3.224" transform="translate(0 0)" fill="#fff"/>
      <path id="Path_895" data-name="Path 895" d="M1566,78v8.1a3,3,0,0,0,3,3h15.851a3,3,0,0,0,3-3V78Zm11.127,7.131h-.046c-3.321-1.581-2.688-3.716-1.66-4.349a7.5,7.5,0,0,0,3.366,0C1579.816,81.415,1580.448,83.55,1577.127,85.131Z" transform="translate(-1566 -73.701)" fill="#fff"/>
    </g>
    <path id="Path_896" data-name="Path 896" d="M1586.269,42a6.262,6.262,0,0,0-5.817,8.6h6.713a.359.359,0,0,0-.358-.358h-1.075a1.788,1.788,0,0,1-.089-3.573v-.9a.716.716,0,0,1,1.433,0v.9h.806a.716.716,0,0,1,0,1.433h-2.149a.358.358,0,1,0,0,.716h1.075A1.793,1.793,0,0,1,1588.6,50.6h3.489a6.262,6.262,0,0,0-5.817-8.6Z" transform="translate(-8.985)" fill="#fff"/>
  </g>
</svg>
