<svg xmlns="http://www.w3.org/2000/svg" width="24" height="24" viewBox="0 0 24 24">
  <g id="Group_2141" data-name="Group 2141" transform="translate(-1774 -150)">
    <path id="Path_911" data-name="Path 911" d="M1786,150a12,12,0,1,0,12,12A12,12,0,0,0,1786,150Zm0,7.562a3.2,3.2,0,1,1-3.2,3.2A3.2,3.2,0,0,1,1786,157.562Zm0,14.466c-3.354,0-5.861-1.551-5.861-2.938s2.506-2.938,5.861-2.938,5.861,1.551,5.861,2.938S1789.354,172.027,1786,172.027Z" fill="#fff"/>
    <circle id="Ellipse_120" data-name="Ellipse 120" cx="0.658" cy="0.658" r="0.658" transform="translate(1784.411 159.863)" fill="#fff"/>
    <circle id="Ellipse_121" data-name="Ellipse 121" cx="0.658" cy="0.658" r="0.658" transform="translate(1786.603 159.863)" fill="#fff"/>
  </g>
</svg>
