<svg xmlns="http://www.w3.org/2000/svg" width="24" height="24" viewBox="0 0 24 24">
  <g id="Group_2015" data-name="Group 2015" transform="translate(-1240 -42)">
    <path id="Path_893" data-name="Path 893" d="M1263.839,48.761h.012a1.544,1.544,0,0,0-.137-.307l-2.2-3.672A5.758,5.758,0,0,0,1256.6,42h-8.969a5.71,5.71,0,0,0-4.8,2.607l-2.47,3.8a1.534,1.534,0,0,0-.169.354h-.026a9.536,9.536,0,0,0,15.389,3.559,4.555,4.555,0,0,0,8.29-3.559Z" fill="#fff"/>
    <path id="Path_894" data-name="Path 894" d="M1262.084,77.716a4.548,4.548,0,0,0-7.775,0,4.543,4.543,0,0,0-7.1,0A4.2,4.2,0,0,1,1244,75.891v9.05a3.253,3.253,0,0,0,3.254,3.254H1261.7a3.253,3.253,0,0,0,3.254-3.254v-8.65A3.981,3.981,0,0,1,1262.084,77.716Zm-5.915,5.746h-3.042a1.014,1.014,0,0,1,0-2.028h3.042a1.014,1.014,0,0,1,0,2.028Z" transform="translate(-2.648 -22.195)" fill="#fff"/>
  </g>
</svg>
