<svg xmlns="http://www.w3.org/2000/svg" width="23.996" height="24" viewBox="0 0 23.996 24">
  <g id="TYR-2" transform="translate(-2126.111 -1453.551)">
    <g id="Group_2576" data-name="Group 2576" transform="translate(2126.111 1453.551)">
      <path id="Path_1422" data-name="Path 1422" d="M2138.106,1453.551a11.929,11.929,0,0,0-6.806,2.126h-.031v.023a11.876,11.876,0,0,0-1.393,1.135h-.007v.006a11.989,11.989,0,0,0-1.595,15.584c.032-.051.06-.1.086-.148a.031.031,0,0,0,.007-.013.845.845,0,0,0,.049-.091v0a11.545,11.545,0,0,1,3.269-3.669,10.682,10.682,0,0,1,4.615-1.926,2.073,2.073,0,0,0,.656-.4,4.469,4.469,0,0,0,1.183-2.287,4.723,4.723,0,0,0,1.4,2.5,1.27,1.27,0,0,0,.2.093,11.186,11.186,0,0,1,8.2,5.681l0,0a1.388,1.388,0,0,1,.072.143,11.893,11.893,0,0,0,2.093-6.758A12.016,12.016,0,0,0,2138.106,1453.551Zm-9.392,12.258a3.646,3.646,0,0,1-.887-.614h3.24a8.722,8.722,0,0,0-.008.938h-1.683C2129.188,1466.042,2128.971,1465.935,2128.714,1465.809Zm1.166.576h1.2a5.846,5.846,0,0,0,.115.806A7.47,7.47,0,0,0,2129.88,1466.384Zm1.208-1.446h-3.51a4.041,4.041,0,0,1-.591-.894h4.241A7.389,7.389,0,0,0,2131.087,1464.938Zm.2-1.155h-4.419a4.643,4.643,0,0,1-.233-.73c.011-.059.027-.116.042-.173h4.906A7.4,7.4,0,0,0,2131.289,1463.783Zm.4-1.16h-4.956c.078-.3.172-.6.274-.9h5.171A6.833,6.833,0,0,0,2131.693,1462.623Zm1.149-1.759a6.427,6.427,0,0,0-.483.6H2127.1c.111-.3.232-.585.367-.871h5.609A2.933,2.933,0,0,0,2132.842,1460.864Zm.5-.523h-5.751c.153-.309.319-.612.5-.9h6.5A7.338,7.338,0,0,0,2133.342,1460.341Zm1.736-1.17a.061.061,0,0,0-.023.01h-6.8q.312-.482.669-.931h7.208A3.514,3.514,0,0,1,2135.078,1459.171Zm1.252-1.182h-7.2a11.525,11.525,0,0,1,.842-.9h6.925A7.823,7.823,0,0,1,2136.33,1457.989Zm.709-1.154h-6.793a12.233,12.233,0,0,1,1.138-.9h6.085C2137.341,1456.232,2137.2,1456.539,2137.04,1456.835Zm.535-1.158h-5.811a11.791,11.791,0,0,1,1.682-.9h4.448C2137.808,1455.06,2137.7,1455.364,2137.575,1455.677Zm.4-1.158h-3.881a11.669,11.669,0,0,1,4.014-.711h.024A5.8,5.8,0,0,1,2137.972,1454.519Zm.2-.709a11.728,11.728,0,0,1,3.95.709h-3.778Q2138.258,1454.183,2138.174,1453.81Zm.242.968h4.351a11.779,11.779,0,0,1,1.686.9h-5.768C2138.593,1455.4,2138.5,1455.1,2138.416,1454.777Zm.354,1.155h6.06a11.784,11.784,0,0,1,1.139.9h-6.83C2139.015,1456.569,2138.89,1456.269,2138.77,1455.932Zm.494,1.16h6.975a11.393,11.393,0,0,1,.842.9h-7.25A5.4,5.4,0,0,1,2139.263,1457.092Zm.792,1.159h7.24c.237.3.463.609.669.931h-6.609A4.386,4.386,0,0,1,2140.055,1458.251Zm1.768,1.188h6.307c.179.291.343.594.5.9h-5.606A7.453,7.453,0,0,0,2141.823,1459.438Zm1.614,1.319s-.052-.06-.151-.163h5.464q.2.429.366.871h-5.1A7.5,7.5,0,0,0,2143.437,1460.757Zm1.251,1.866a6.753,6.753,0,0,0-.5-.9h5.013a9.044,9.044,0,0,1,.273.9Zm.461,4.568a5.016,5.016,0,0,0,.136-.806h1.114A7.756,7.756,0,0,0,2145.149,1467.191Zm2.594-1.5c-.344.171-.628.316-.867.439h-1.568a7.252,7.252,0,0,0,0-.938h3.172A3.506,3.506,0,0,1,2147.743,1465.694Zm1-.755h-3.451a6.829,6.829,0,0,0-.137-.894h4.166A3.433,3.433,0,0,1,2148.745,1464.938Zm-3.647-1.155a7.1,7.1,0,0,0-.3-.9h4.74c.019.081.037.163.056.243a3.773,3.773,0,0,1-.17.66Z" transform="translate(-2126.111 -1453.551)" fill="#e3e2e5"/>
      <path id="Path_1423" data-name="Path 1423" d="M2249.573,1697.019a6.16,6.16,0,0,0,5.336-3.044,10.018,10.018,0,0,0-5.358-1.482,9.717,9.717,0,0,0-5.249,1.5A6.03,6.03,0,0,0,2249.573,1697.019Z" transform="translate(-2237.523 -1678.788)" fill="#e3e2e5"/>
      <path id="Path_1424" data-name="Path 1424" d="M2192.849,1731.219a9.62,9.62,0,0,0-3.025-3.552,8.129,8.129,0,0,1-1.822,2.057,7.657,7.657,0,0,1-4.332,1.416,7.211,7.211,0,0,1-6.068-3.473,11.291,11.291,0,0,0-3.057,3.7s0,0,0,0c-.05.1-.1.173-.132.246a11.986,11.986,0,0,0,18.564-.13c-.022-.057-.071-.155-.12-.265C2192.852,1731.213,2192.852,1731.218,2192.849,1731.219Z" transform="translate(-2171.642 -1711.945)" fill="#e3e2e5"/>
    </g>
  </g>
</svg>
