<svg xmlns="http://www.w3.org/2000/svg" xmlns:xlink="http://www.w3.org/1999/xlink" width="42.994" height="43.002" viewBox="0 0 42.994 43.002">
  <defs>
    <linearGradient id="linear-gradient" x1="0.5" x2="0.5" y2="1" gradientUnits="objectBoundingBox">
      <stop offset="0" stop-color="#43cef8"/>
      <stop offset="1" stop-color="#0088c6"/>
    </linearGradient>
    <filter id="Union_6" x="0" y="0" width="42.994" height="43.002" filterUnits="userSpaceOnUse">
      <feOffset dy="3" input="SourceAlpha"/>
      <feGaussianBlur stdDeviation="3" result="blur"/>
      <feFlood flood-color="#43cef8" flood-opacity="0.302"/>
      <feComposite operator="in" in2="blur"/>
      <feComposite in="SourceGraphic"/>
    </filter>
  </defs>
  <g id="TYR-1" transform="translate(-2116.612 -1447.049)">
    <g id="Group_2576" data-name="Group 2576" transform="translate(2126.111 1453.551)">
      <g transform="matrix(1, 0, 0, 1, -9.5, -6.5)" filter="url(#Union_6)">
        <path id="Union_6-2" data-name="Union 6" d="M6642.771,17107.664c.035-.074.082-.15.129-.25,0,0,0,0,0,0a11.262,11.262,0,0,1,3.053-3.7,7.221,7.221,0,0,0,6.068,3.475,7.655,7.655,0,0,0,4.333-1.418,8.139,8.139,0,0,0,1.821-2.057,9.611,9.611,0,0,1,3.027,3.553s0-.006,0-.006c.052.107.1.207.12.262a11.982,11.982,0,0,1-18.561.135ZM6640,17100a11.976,11.976,0,0,1,3.758-8.713v-.006h0a11.861,11.861,0,0,1,1.4-1.133v-.021h.03a11.989,11.989,0,0,1,16.714,16.629,1.175,1.175,0,0,0-.073-.143,11.186,11.186,0,0,0-8.2-5.682,1.1,1.1,0,0,1-.2-.09,4.73,4.73,0,0,1-1.4-2.5,4.449,4.449,0,0,1-1.181,2.285,2.051,2.051,0,0,1-.657.4,10.694,10.694,0,0,0-4.617,1.924,11.568,11.568,0,0,0-3.268,3.672.727.727,0,0,1-.047.1c0,.008-.009.008-.009.008a1.164,1.164,0,0,1-.086.15A11.933,11.933,0,0,1,6640,17100Zm19.038,1.641a7.6,7.6,0,0,1,1.25-.807h-1.117A5.046,5.046,0,0,1,6659.039,17101.643Zm-13.958,0a5.379,5.379,0,0,1-.116-.807h-1.2A7.1,7.1,0,0,1,6645.082,17101.643Zm14.116-1.061h1.567c.236-.125.524-.268.868-.437a3.376,3.376,0,0,0,.739-.5H6659.2A7.5,7.5,0,0,1,6659.2,17100.582Zm-16.594-.322c.258.125.473.232.662.322h1.683a8.716,8.716,0,0,1,.009-.937h-3.242A3.716,3.716,0,0,0,6642.6,17100.26Zm16.582-.871h3.448a3.4,3.4,0,0,0,.58-.895h-4.166A7.075,7.075,0,0,1,6659.185,17099.389Zm-17.72,0h3.509a8.127,8.127,0,0,1,.142-.895h-4.243A4.076,4.076,0,0,0,6641.465,17099.389Zm17.522-1.156h4.329a3.729,3.729,0,0,0,.167-.662c-.018-.076-.035-.162-.056-.24h-4.741A7.43,7.43,0,0,1,6658.987,17098.232Zm-18.462-.73a4.775,4.775,0,0,0,.232.73h4.419a8.223,8.223,0,0,1,.3-.9h-4.9C6640.551,17097.387,6640.538,17097.441,6640.525,17097.5Zm18.05-.43h4.792a8.9,8.9,0,0,0-.275-.9h-5.012A7.023,7.023,0,0,1,6658.575,17097.072Zm-17.951,0h4.96a6.825,6.825,0,0,1,.485-.9h-5.17C6640.8,17096.467,6640.7,17096.768,6640.624,17097.072Zm16.7-1.867a8.413,8.413,0,0,1,.58.709h5.1c-.111-.3-.236-.584-.369-.873h-5.463C6657.274,17095.145,6657.325,17095.205,6657.325,17095.205Zm-16.336.709h5.261a5.486,5.486,0,0,1,.481-.6,3.075,3.075,0,0,1,.236-.275h-5.608C6641.221,17095.33,6641.1,17095.617,6640.989,17095.914Zm15.92-1.121h5.609c-.155-.314-.322-.615-.5-.906h-6.309A7.247,7.247,0,0,1,6656.909,17094.793Zm-15.43,0h5.75a7.352,7.352,0,0,1,1.25-.906h-6.5C6641.8,17094.178,6641.633,17094.479,6641.479,17094.793Zm13.764-1.164h6.609c-.206-.322-.434-.627-.67-.928h-7.24A4.5,4.5,0,0,0,6655.243,17093.629Zm-13.1,0h6.8c.009,0,.013,0,.026-.008a3.5,3.5,0,0,0,1.048-.92h-7.207A10.949,10.949,0,0,0,6642.14,17093.629Zm11.578-1.189h7.25a9.758,9.758,0,0,0-.842-.9h-6.975A5.6,5.6,0,0,0,6653.718,17092.439Zm-10.693,0h7.193a7.6,7.6,0,0,0,.571-.9h-6.923A10.325,10.325,0,0,0,6643.024,17092.439Zm10-1.156h6.833a11.287,11.287,0,0,0-1.142-.9h-6.06C6652.777,17090.717,6652.9,17091.018,6653.026,17091.283Zm-8.89,0h6.794c.159-.295.3-.6.43-.9h-6.085A11.294,11.294,0,0,0,6644.137,17091.283Zm8.435-1.154h5.768a11.55,11.55,0,0,0-1.684-.9h-4.35C6652.391,17089.553,6652.481,17089.85,6652.571,17090.129Zm-6.918,0h5.811c.125-.318.232-.623.318-.9h-4.445A11.525,11.525,0,0,0,6645.653,17090.129Zm6.583-1.16h3.775a11.809,11.809,0,0,0-3.947-.713C6652.116,17088.51,6652.176,17088.746,6652.236,17088.969Zm-4.256,0h3.882a5.969,5.969,0,0,0,.154-.713H6652A11.644,11.644,0,0,0,6647.98,17088.969Zm4.071,17.264a6.034,6.034,0,0,1-5.274-3.027,9.727,9.727,0,0,1,5.248-1.5,10,10,0,0,1,5.359,1.482,6.162,6.162,0,0,1-5.228,3.045C6652.122,17106.234,6652.087,17106.234,6652.052,17106.232Z" transform="translate(-6630.5 -17081.5)" stroke="rgba(0,0,0,0)" stroke-miterlimit="10" stroke-width="1" fill="url(#linear-gradient)"/>
      </g>
    </g>
  </g>
</svg>
